<svg height="64px" version="1.1" viewBox="0 0 64 64" width="64px" xmlns="http://www.w3.org/2000/svg"><rect height="64" width="64" x="0" y="0"></rect><g fill="#FFFFFF" fill-rule="nonzero" transform="translate(14.000000, 15.000000)"><path d="M7.77777778,10.3703704 L7.77777778,35 L0,35 L0,10.3703704 L7.77777778,10.3703704 Z M0,3.20023148 C0,1.38744148 1.55454315,0 3.88888889,0 C6.22323463,0 7.68663259,1.38744148 7.77777778,3.20023148 C7.77777778,5.01808481 6.32450778,6.48148148 3.88888889,6.48148148 C1.55454315,6.48148148 0,5.01808481 0,3.20023148 Z M36.2962963,35 L28.5185185,35 C28.5185185,35 28.5185185,22.994068 28.5185185,22.037037 C28.5185185,19.4444444 27.2222222,16.8518519 23.9814815,16.8012159 L23.8802083,16.8012159 C20.7407407,16.8012159 19.4444444,19.4697624 19.4444444,22.037037 C19.4444444,23.2168689 19.4444444,35 19.4444444,35 L11.6666667,35 L11.6666667,10.3703704 L19.4444444,10.3703704 L19.4444444,13.6870663 C19.4444444,13.6870663 21.9458919,10.3703704 26.9741033,10.3703704 C32.1238426,10.3703704 36.2962963,13.9098672 36.2962963,21.0800061 L36.2962963,35 Z"></path></g></svg>