<svg height="64px" version="1.1" viewBox="0 0 64 64" width="64px" xmlns="http://www.w3.org/2000/svg"><rect height="64" width="64" x="0" y="0"></rect><g fill="#FFFFFF" fill-rule="nonzero" transform="translate(11.000000, 15.000000)"><path d="M42,4.06672549 C40.4541667,4.75169608 38.7955098,5.21623529 37.0527843,5.42362745 C38.8322255,4.35804902 40.1943431,2.66789216 40.8399216,0.660127451 C39.1707647,1.64692157 37.3283235,2.36346078 35.3651667,2.75189216 C33.7931176,1.07484314 31.5570294,0.0302647059 29.0768333,0.0302647059 C24.3186176,0.0302647059 20.4605882,3.88829412 20.4605882,8.64390196 C20.4605882,9.31837255 20.5366961,9.97712745 20.6836961,10.6070588 C13.5240686,10.247451 7.17541176,6.8172451 2.92634314,1.60492157 C2.18358824,2.87521569 1.76104902,4.35537255 1.76104902,5.93538235 C1.76104902,8.92472549 3.28327451,11.5623529 5.59286275,13.1055098 C4.18085294,13.0582941 2.85284314,12.6698627 1.69022549,12.0242157 L1.69022549,12.1318235 C1.69022549,16.3047843 4.66117647,19.7874902 8.60052941,20.5801373 C7.87877451,20.7743529 7.11769608,20.8819608 6.33033333,20.8819608 C5.77397059,20.8819608 5.23593137,20.8268529 4.70839216,20.7218529 C5.80540196,24.1468431 8.98635294,26.6374706 12.7551667,26.7057549 C9.80782353,29.0153431 6.0915098,30.3879608 2.05504902,30.3879608 C1.35957843,30.3879608 0.674539216,30.3459608 6.8627451e-05,30.2698529 C3.8134902,32.718549 8.34077451,34.1462745 13.206598,34.1462745 C29.0559706,34.1462745 37.7195,21.0184608 37.7195,9.63337255 L37.6906078,8.51797059 C39.3833725,7.31060784 40.8478137,5.79366667 42,4.06672549 Z"></path></g></svg>