<svg height="64px" version="1.1" viewBox="0 0 64 64" width="64px" xmlns="http://www.w3.org/2000/svg"><rect height="64" width="64" x="0" y="0"></rect><g transform="translate(10.000000, 15.000000)"><path d="M42.9006866,28.3629261 C42.4863873,30.6705729 40.6717566,32.4396307 38.4055398,32.7793561 C34.8052794,33.3138021 28.8766572,34.0056818 22.2727273,34.0056818 C15.6687973,34.0056818 9.7360322,33.3138021 6.13991477,32.7752131 C3.87369792,32.4396307 2.06321023,30.6664299 1.64476799,28.3629261 C1.18903883,25.8315578 0.729166667,22.1194366 0.729166667,17.4337121 C0.729166667,12.7479877 1.18903883,9.02758049 1.64476799,6.50449811 C2.05906723,4.19270833 3.86955492,2.42779356 6.13991477,2.08806818 C9.71946023,1.54947917 15.6315104,0.861742424 22.2727273,0.861742424 C28.9139441,0.861742424 34.8218513,1.54947917 38.4055398,2.08392519 C40.6717566,2.42365057 42.4822443,4.19270833 42.8965436,6.50449811 C43.3564157,9.03586648 43.8162879,12.7562737 43.8162879,17.4337121 C43.8162879,22.1070076 43.3564157,25.8274148 42.9006866,28.3629261 Z" fill="#FFFFFF" stroke="#FFFFFF" stroke-width="3.125"></path><polygon fill-rule="nonzero" points="15.6439394 25.719697 15.6439394 9.14772727 32.2159091 17.4337121"></polygon></g></svg>