<svg height="64px" version="1.1" viewBox="0 0 64 64" width="64px" xmlns="http://www.w3.org/2000/svg"><rect height="64" width="64" x="0" y="0"></rect><g fill="#FFFFFF" fill-rule="nonzero" transform="translate(24.000000, 15.000000)"><path d="M15.1666667,17.15 L10.4545,17.15 C10.4545,24.6785 10.4545,33.9453333 10.4545,33.9453333 L3.472,33.9453333 C3.472,33.9453333 3.472,24.7683333 3.472,17.15 L0.152833333,17.15 L0.152833333,11.214 L3.472,11.214 L3.472,7.3745 C3.472,4.62466667 4.77866667,0.327833333 10.5186667,0.327833333 L15.6928333,0.347666667 L15.6928333,6.10983333 C15.6928333,6.10983333 12.5486667,6.10983333 11.9373333,6.10983333 C11.326,6.10983333 10.4568333,6.4155 10.4568333,7.72683333 L10.4568333,11.2151667 L15.7768333,11.2151667 L15.1666667,17.15 Z"></path></g></svg>