<svg height="64px" version="1.1" viewBox="0 0 64 64" width="64px" xmlns="http://www.w3.org/2000/svg"><rect height="64" width="64" x="0" y="0"></rect><g transform="translate(15.000000, 15.000000)"><path d="M10,35 L25,35 C30.5240883,35 35,30.5240883 35,25 L35,10 C35,4.47591167 30.5240883,0 25,0 L10,0 C4.47591167,0 0,4.47591167 0,10 L0,25 C0,30.5240883 4.47591167,35 10,35 Z" stroke="#FFFFFF" stroke-width="3"></path><path d="M17.5,9.16666667 C12.897135,9.16666667 9.16666667,12.897135 9.16666667,17.5 C9.16666667,22.102865 12.897135,25.8333333 17.5,25.8333333 C22.102865,25.8333333 25.8333333,22.102865 25.8333333,17.5 C25.8333333,12.897135 22.102865,9.16666667 17.5,9.16666667 Z" stroke="#FFFFFF" stroke-width="3"></path><path d="M27.5,5.83333333 C26.5787758,5.83333333 25.8333333,6.57877583 25.8333333,7.5 C25.8333333,8.42122417 26.5787758,9.16666667 27.5,9.16666667 C28.4212242,9.16666667 29.1666667,8.42122417 29.1666667,7.5 C29.1666667,6.57877583 28.4212242,5.83333333 27.5,5.83333333 Z" fill="#FFFFFF" fill-rule="nonzero"></path></g></svg>