<svg height="64px" version="1.1" viewBox="0 0 64 64" width="64px" xmlns="http://www.w3.org/2000/svg"><rect height="64" width="64" x="0" y="0"></rect><path d="M42.0161678,26.6666667 C41.1578774,20.0699872 34.530816,15 26.5555556,15 C17.9992407,15 11,20.8333333 11,28.125 C11,32.3063149 13.2368704,35.9027778 16.8333333,38.3333333 L14.8888889,44.1666667 L21.0146482,40.3765186 C22.6666667,40.957574 24.6111111,41.25 26.5555556,41.25 C27.5505647,41.25 28.5265844,41.1702476 29.4722222,41.0183379" fill="#FFFFFF" stroke="#000000" stroke-width="1"></path><path d="M53.7777778,37.3611111 C53.7777778,31.4290369 48.1381296,26.6666667 41.1388889,26.6666667 C34.1396482,26.6666667 28.5,31.4290369 28.5,37.3611111 C28.5,43.2931853 34.1396482,48.0555556 41.1388889,48.0555556 C42.8896482,48.0555556 44.5416667,47.7631296 46,47.2770185 L50.8611111,50 L49.5015186,45.332574 C52.1257593,43.3881296 53.7777778,40.5702037 53.7777778,37.3611111 Z" fill="#FFFFFF" stroke="#000000" stroke-width="1"></path><path d="M22.6666667,23.75 C22.6666667,24.8209631 21.7931853,25.6944444 20.7222222,25.6944444 C19.6512592,25.6944444 18.7777778,24.8209631 18.7777778,23.75 C18.7777778,22.6790369 19.6512592,21.8055556 20.7222222,21.8055556 C21.7931853,21.8055556 22.6666667,22.6790369 22.6666667,23.75 Z M32.3888889,21.8055556 C31.3179258,21.8055556 30.4444444,22.6790369 30.4444444,23.75 C30.4444444,24.8209631 31.3179258,25.6944444 32.3888889,25.6944444 C33.4598519,25.6944444 34.3333333,24.8209631 34.3333333,23.75 C34.3333333,22.6790369 33.4598519,21.8055556 32.3888889,21.8055556 Z M38.2222222,34.9305556 C38.2222222,35.7090926 37.542426,36.3888889 36.7638889,36.3888889 C35.9853518,36.3888889 35.3055556,35.7090926 35.3055556,34.9305556 C35.3055556,34.1520185 35.9853518,33.4722222 36.7638889,33.4722222 C37.542426,33.4722222 38.2222222,34.1520185 38.2222222,34.9305556 Z M45.5138889,33.4722222 C44.7353518,33.4722222 44.0555556,34.1520185 44.0555556,34.9305556 C44.0555556,35.7090926 44.7353518,36.3888889 45.5138889,36.3888889 C46.292426,36.3888889 46.9722222,35.7090926 46.9722222,34.9305556 C46.9722222,34.1520185 46.292426,33.4722222 45.5138889,33.4722222 Z" fill="#000000" fill-rule="nonzero"></path></svg>