<svg height="64px" version="1.1" viewBox="0 0 64 64" width="64px" xmlns="http://www.w3.org/2000/svg"><rect height="64" width="64" x="0" y="0"></rect><g fill="#FFFFFF" fill-rule="nonzero" transform="translate(11.000000, 15.000000)"><path d="M31.308594,0.921875 C30.363281,0.878906 29.417969,0.941406 28.488281,1.136719 C27.628906,1.320312 27.054688,2.175781 27.238281,3.035156 C27.421875,.894531 28.277344,4.464844 29.136719,4.285156 C31.789062,3.722656 34.679688,4.519531 36.625,6.671875 C38.570312,8.824219 39.082031,11.796875 38.253906,14.375 C37.980469,15.214844 38.441406,16.113281 39.285156,16.382812 C40.121094,16.652344 41.019531,16.191406 41.292969,15.351562 C42.460938,11.722656 41.75,7.585938 39.011719,4.554688 C36.960938,2.28125 34.144531,1.054688 31.308594,0.921875 Z"></path><path d="M31.039062,6.5625 C30.578125,6.542969 30.136719,6.574219 29.679688,6.671875 C28.9375,6.828125 28.433594,7.609375 28.597656,8.351562 C28.757812,.089844 29.484375,9.542969 30.222656,9.382812 C31.109375,9.195312 32.121094,9.476562 32.773438,10.199219 C33.425781,10.921875 33.597656,11.886719 33.316406,12.746094 C33.082031,13.46875 33.460938,14.25 34.183594,14.484375 C34.90625,14.714844 35.6875,14.335938 35.917969,13.613281 C36.488281,11.847656 36.113281,9.828125 34.777344,8.351562 C33.78125,7.246094 32.417969,6.628906 31.039062,6.5625 Z M31.472656,17.144531 C30.882812,16.96875 30.457031,16.882812 30.765625,16.113281 C31.429688,14.441406 31.542969,12.964844 30.820312,11.933594 C29.464844,10.003906 25.730469,10.105469 21.488281,11.882812 C21.488281,11.882812 20.171875,12.503906 20.511719,11.449219 C21.164062,9.351562 21.039062,7.582031 20.023438,6.566406 C19.304688,5.84375 18.253906,5.554688 16.929688,5.695312 C14.023438,6.003906 9.960938,8.273438 6.351562,11.878906 C2.421875,15.8125 0.167969,19.996094 0.167969,23.597656 C0.167969,30.488281 8.992188,34.667969 17.636719,34.667969 C28.964844,34.667969 36.515625,28.066406 36.515625,22.839844 C36.515625,19.679688 33.863281,17.882812 31.472656,17.144531 Z M17.691406,32.226562 C10.792969,32.90625 4.792969,29.753906 4.34375,25.226562 C3.894531,20.699219 9.167969,16.464844 16.0625,15.785156 C16.925781,15.699219 17.734375,15.703125 18.558594,15.730469 C24.324219,15.933594 28.960938,18.824219 29.355469,22.785156 C29.800781,27.316406 24.585938,31.542969 17.691406,32.226562 Z"></path><path d="M16.992188,20.304688 C16.214844,20.113281 15.417969,20.039062 14.632812,20.109375 C12.269531,20.324219 10.050781,21.628906 9.039062,23.58203 C7.667969,26.238281 8.980469,29.214844 12.117188,30.183594 C15.367188,31.179688 19.203125,29.628906 20.535156,26.761719 C21.847656,23.953125 20.203125,21.097656 16.992188,20.304688 Z M14.632812,27.054688 C14,28.011719 12.671875,28.476562 11.65625,28.03125 C10.652344,27.597656 10.359375,26.472656 10.988281,25.539062 C11.457031,24.839844 12.269531,24.402344 13.09375,24.414062 C13.367188,24.417969 13.664062,24.457031 13.914062,24.558594 C14.933594,24.976562 15.253906,26.085938 14.632812,27.054688 Z"></path></g></svg>