<svg data-v-1e121de1="" version="1.0" xmlns="http://www.w3.org/2000/svg" xmlns:xlink="http://www.w3.org/1999/xlink" width="100%" height="100%" viewBox="0 0 340.000000 250.000000" preserveAspectRatio="xMidYMid meet" color-interpolation-filters="sRGB" class="el-tooltip" style="margin: auto;"><rect data-v-1e121de1="" x="0" y="0" width="100%" height="100%" fill="#fff" fill-opacity="1" class="background"></rect> <rect data-v-1e121de1="" x="0" y="0" width="100%" height="100%" fill="url(#watermark)" fill-opacity="1" class="watermarklayer"></rect> <g data-v-1e121de1="" fill="#444" class="icon-text-wrapper icon-svg-group iconsvg" transform="translate(119.20500183105469,99.01718711853027)"><g class="iconsvg-imagesvg" transform="translate(0,0)"><rect fill="#444" fill-opacity="0" stroke-width="2" x="0" y="0" width="60" height="51.965625" class="image-rect"></rect> <svg filter="url(#colors5431791004)" x="0" y="0" width="60" height="51.965625" filtersec="colorsf3727884203" class="image-svg-svg primary"><svg xmlns="http://www.w3.org/2000/svg" viewBox="0 0 96.4 83.5"><path d="M48.2 4l22.4 38.8L93 81.5H3.5l22.4-38.8L48.2 4zm0 69L28 39m15.2 42.5L23 47.7M68.4 39L43.2 81.5m10.1 0l20.2-33.8M63.4 81.5l15.1-25.1m-5.1 25.1l10.1-16.3m5.1 8.7l-5 7.6M17.9 56.4L33 81.5m30.4-51.3L43.2 64.4M23 81.5L12.9 65.2m45.4-43.7L38.1 55.8M7.8 73.9l5 7.6M33 47.3l20.3-34.6" fill="none" stroke="#333" stroke-width="4" stroke-miterlimit="10"></path></svg></svg> <defs><filter id="colors5431791004"><feColorMatrix type="matrix" values="0 0 0 0 0.265625  0 0 0 0 0.265625  0 0 0 0 0.265625  0 0 0 1 0" class="icon-fecolormatrix"></feColorMatrix></filter> <filter id="colorsf3727884203"><feColorMatrix type="matrix" values="0 0 0 0 0.99609375  0 0 0 0 0.99609375  0 0 0 0 0.99609375  0 0 0 1 0" class="icon-fecolormatrix"></feColorMatrix></filter> <filter id="colorsb650797806"><feColorMatrix type="matrix" values="0 0 0 0 0  0 0 0 0 0  0 0 0 0 0  0 0 0 1 0" class="icon-fecolormatrix"></feColorMatrix></filter></defs></g> <g transform="translate(67,0.3529701232910156)" mask="url(#af963a1f-2e23-4f4c-9a8a-e28e86a2e7dd)"><g fill-rule="" class="tp-name iconsvg-namesvg" transform="translate(0,0)"><g><path d="M24.71-13.32L24.71-13.32L24.71-14.82Q23.85-15.47 23.42-16.76L23.42-16.76L23.85-17.62Q24.49-18.05 33.09-17.83L33.09-17.83Q34.38-17.83 34.80-17.83L34.80-17.83Q35.02-17.83 35.23-17.83L35.23-17.83Q35.66-17.62 35.66-17.62L35.66-17.62L35.88-16.76Q35.66-15.68 34.80-14.61L34.80-14.61Q33.52-13.11 33.52-10.96L33.52-10.96Q33.52-8.59 36.09-7.30L36.09-7.30Q33.95-4.51 31.37-5.16L31.37-5.16Q26.21 1.29 18.91 0.86L18.91 0.86Q3.01-0.43 1.50-16.97L1.50-16.97Q3.22-33.09 18.91-34.80L18.91-34.80Q23.42-34.80 26.43-32.66L26.43-32.66Q30.51-29.00 28.79-26.21L28.79-26.21Q28.36-25.57 27.71-25.57L27.71-25.57Q27.50-25.35 27.29-25.14L27.29-25.14Q24.92-24.92 24.06-27.07L24.06-27.07Q23.20-30.72 17.40-30.72L17.40-30.72Q8.38-29.86 7.30-18.48L7.30-18.48Q7.95-8.59 19.12-7.95L19.12-7.95Q24.28-8.81 24.71-13.32Z" transform="translate(-1.50390625, 34.8046875)"></path></g> <!----> <!----> <!----> <!----> <!----> <!----> <!----></g> <g fill-rule="" hollow-target="t-name" class="tp-slogan iconsvg-slogansvg" fill="#444" transform="translate(0,42.68687438964844)"><rect x="0" height="1" y="3.7899999618530273" width="5.085000038146973"></rect> <rect height="1" y="3.7899999618530273" width="5.085000038146973" x="29.505000114440918"></rect> <g transform="translate(8.085000038146973,0)"><path d="M3.47-8.44L4.27-8.44L4.27 0L3.19 0L3.19-5.95L1.17-5.95L1.17-6.80Q3.28-6.70 3.47-8.44L3.47-8.44ZM8.25-5.39L8.25-5.39L7.17-5.39Q7.22-8.34 10.08-8.44L10.08-8.44Q12.61-8.30 12.75-5.91L12.75-5.91Q12.84-4.17 10.45-3.09L10.45-3.09L9.56-2.58Q8.30-1.88 8.16-0.98L8.16-0.98L12.75-0.98L12.75 0L6.98 0Q7.03-2.30 8.95-3.33L8.95-3.33L10.08-3.98Q11.72-4.83 11.63-5.95L11.63-5.95Q11.53-7.41 9.94-7.45L9.94-7.45Q8.30-7.45 8.25-5.39ZM15.98-3.89L15.98-3.89L15.98-4.78Q16.27-4.78 16.55-4.78L16.55-4.78Q18.09-4.83 18.14-6.14L18.14-6.14Q18.05-7.41 16.59-7.45L16.59-7.45Q15-7.45 14.95-5.67L14.95-5.67L13.92-5.67Q13.97-8.39 16.64-8.44L16.64-8.44Q19.08-8.34 19.22-6.23L19.22-6.23Q19.22-4.92 18.19-4.45L18.19-4.45L18.19-4.41Q19.59-3.98 19.59-2.48L19.59-2.48Q19.45 0.05 16.55 0.14L16.55 0.14Q15.56 0.14 15-0.14L15-0.14Q13.78-0.70 13.73-2.58L13.73-2.58L14.81-2.58Q14.86-0.70 16.59-0.70L16.59-0.70Q18.33-0.80 18.42-2.34L18.42-2.34Q18.42-3.89 16.50-3.89L16.50-3.89Q16.22-3.89 15.98-3.89Z" transform="translate(-1.171875, 8.4375)"></path></g></g></g></g><mask id="af963a1f-2e23-4f4c-9a8a-e28e86a2e7dd"><g fill-rule="" class="tp-name iconsvg-namesvg" transform="translate(0,0)" fill="white"><g><path d="M24.71-13.32L24.71-13.32L24.71-14.82Q23.85-15.47 23.42-16.76L23.42-16.76L23.85-17.62Q24.49-18.05 33.09-17.83L33.09-17.83Q34.38-17.83 34.80-17.83L34.80-17.83Q35.02-17.83 35.23-17.83L35.23-17.83Q35.66-17.62 35.66-17.62L35.66-17.62L35.88-16.76Q35.66-15.68 34.80-14.61L34.80-14.61Q33.52-13.11 33.52-10.96L33.52-10.96Q33.52-8.59 36.09-7.30L36.09-7.30Q33.95-4.51 31.37-5.16L31.37-5.16Q26.21 1.29 18.91 0.86L18.91 0.86Q3.01-0.43 1.50-16.97L1.50-16.97Q3.22-33.09 18.91-34.80L18.91-34.80Q23.42-34.80 26.43-32.66L26.43-32.66Q30.51-29.00 28.79-26.21L28.79-26.21Q28.36-25.57 27.71-25.57L27.71-25.57Q27.50-25.35 27.29-25.14L27.29-25.14Q24.92-24.92 24.06-27.07L24.06-27.07Q23.20-30.72 17.40-30.72L17.40-30.72Q8.38-29.86 7.30-18.48L7.30-18.48Q7.95-8.59 19.12-7.95L19.12-7.95Q24.28-8.81 24.71-13.32Z" transform="translate(-1.50390625, 34.8046875)"></path></g>       </g> <rect fill="#000" x="0" y="0" width="38.59000015258789" height="12.579999923706055" transform="translate(-2, 40.68687438964844)"></rect><g fill-rule="" hollow-target="t-name" class="tp-slogan iconsvg-slogansvg" transform="translate(0,42.68687438964844)" fill="#fff"><rect x="0" height="1" y="3.7899999618530273" width="5.085000038146973"></rect> <rect height="1" y="3.7899999618530273" width="5.085000038146973" x="29.505000114440918"></rect> <g transform="translate(8.085000038146973,0)"><path d="M3.47-8.44L4.27-8.44L4.27 0L3.19 0L3.19-5.95L1.17-5.95L1.17-6.80Q3.28-6.70 3.47-8.44L3.47-8.44ZM8.25-5.39L8.25-5.39L7.17-5.39Q7.22-8.34 10.08-8.44L10.08-8.44Q12.61-8.30 12.75-5.91L12.75-5.91Q12.84-4.17 10.45-3.09L10.45-3.09L9.56-2.58Q8.30-1.88 8.16-0.98L8.16-0.98L12.75-0.98L12.75 0L6.98 0Q7.03-2.30 8.95-3.33L8.95-3.33L10.08-3.98Q11.72-4.83 11.63-5.95L11.63-5.95Q11.53-7.41 9.94-7.45L9.94-7.45Q8.30-7.45 8.25-5.39ZM15.98-3.89L15.98-3.89L15.98-4.78Q16.27-4.78 16.55-4.78L16.55-4.78Q18.09-4.83 18.14-6.14L18.14-6.14Q18.05-7.41 16.59-7.45L16.59-7.45Q15-7.45 14.95-5.67L14.95-5.67L13.92-5.67Q13.97-8.39 16.64-8.44L16.64-8.44Q19.08-8.34 19.22-6.23L19.22-6.23Q19.22-4.92 18.19-4.45L18.19-4.45L18.19-4.41Q19.59-3.98 19.59-2.48L19.59-2.48Q19.45 0.05 16.55 0.14L16.55 0.14Q15.56 0.14 15-0.14L15-0.14Q13.78-0.70 13.73-2.58L13.73-2.58L14.81-2.58Q14.86-0.70 16.59-0.70L16.59-0.70Q18.33-0.80 18.42-2.34L18.42-2.34Q18.42-3.89 16.50-3.89L16.50-3.89Q16.22-3.89 15.98-3.89Z" transform="translate(-1.171875, 8.4375)"></path></g></g></mask></svg>