<svg data-v-1e121de1="" version="1.0" xmlns="http://www.w3.org/2000/svg" xmlns:xlink="http://www.w3.org/1999/xlink" width="100%" height="100%" viewBox="0 0 340.000000 250.000000" preserveAspectRatio="xMidYMid meet" color-interpolation-filters="sRGB" class="el-tooltip" style="margin: auto;"><rect data-v-1e121de1="" x="0" y="0" width="100%" height="100%" fill="#fff" fill-opacity="1" class="background"></rect> <rect data-v-1e121de1="" x="0" y="0" width="100%" height="100%" fill="url(#watermark)" fill-opacity="1" class="watermarklayer"></rect> <g data-v-1e121de1="" fill="#0be8e6" class="icon-text-wrapper icon-svg-group iconsvg" transform="translate(119.99999237060547,97.78877639770508)"><g class="iconsvg-imagesvg" transform="translate(0,0)"><rect fill="#0be8e6" fill-opacity="0" stroke-width="2" x="0" y="0" width="60" height="54.42244890559921" class="image-rect"></rect> <svg x="0" y="0" width="60" height="54.42244890559921" filtersec="colorsb1814160710" class="image-svg-svg primary"><svg xmlns="http://www.w3.org/2000/svg" viewBox="-0.373 0 122.47 111.085"><title>基础图标</title><g><g><g fill-rule="evenodd"><path d="M24.14 66.3h74.58a22.38 22.38 0 0 1 22.38 22.38 22.37 22.37 0 0 1-22.38 22.37H24.14A22.37 22.37 0 0 1 1.76 88.68 22.38 22.38 0 0 1 24.14 66.3z" fill="#0be8e6"></path><path d="M81.54 12.75l37.29 64.59a22.37 22.37 0 0 1-8.19 30.57 22.37 22.37 0 0 1-30.56-8.19l-37.3-64.59A22.38 22.38 0 0 1 51 4.56a22.38 22.38 0 0 1 30.54 8.19z" fill="#ffaf15"></path><path d="M40.3 12.75L3 77.34a22.38 22.38 0 0 0 8.19 30.57 22.38 22.38 0 0 0 30.57-8.19l37.29-64.59a22.37 22.37 0 0 0-8.19-30.57 22.37 22.37 0 0 0-30.56 8.19z" fill="#ff4e8e"></path><path d="M60.82 66.3l-19.61 34a22.32 22.32 0 0 1-15.13 10.78h-3.6a22.38 22.38 0 1 1 0-44.75z" fill="#0b4780"></path><path d="M61.29 66.41l-19-32.84A22.39 22.39 0 0 1 61.29 0a22.39 22.39 0 0 1 19 33.57z" fill="#ff360c"></path><path d="M60.88 66.3h38.81a22.35 22.35 0 0 1 18.58 9.91l1 1.69c.41.71.77 1.43 1.1 2.16a22.38 22.38 0 0 1-20.66 31h-4.09a22.3 22.3 0 0 1-15.13-10.78z" fill="#0b9f13"></path></g></g></g></svg></svg> <!----></g> <g transform="translate(67.00000762939453,0.16701507568359375)" mask="url(#58106769-bb8e-4558-9e11-60893b243027)"><g fill-rule="" class="tp-name iconsvg-namesvg" transform="translate(0,0)"><g><path d="M17.93-19.09L26.40-19.14Q29.26-19.20 34.65-19.20L34.65-19.20L34.65-14.79Q34.65-11.22 32.59-7.67Q30.52-4.13 26.89-1.84Q23.27 0.44 18.70 0.44L18.70 0.44Q13.26 0.44 9.40-2.37Q5.55-5.17 3.60-9.71Q1.65-14.24 1.65-19.36L1.65-19.36Q1.65-24.31 3.55-28.66Q5.45-33 9.19-35.61Q12.93-38.23 18.15-38.06L18.15-38.06Q29.86-38.06 34.21-26.95L34.21-26.95L29.92-25.85Q28.49-28.11 26.84-29.86Q25.19-31.63 23.24-32.48Q21.29-33.33 18.15-33.33L18.15-33.33Q14.63-33.33 12.04-31.24Q9.46-29.15 8.39-25.77Q7.32-22.39 7.32-18.59L7.32-18.59Q7.32-14.85 8.39-11.55Q9.46-8.25 12.24-6.24Q15.02-4.24 19.03-4.24L19.03-4.24Q23.48-4.24 26.37-7.12Q29.26-10.01 30.14-14.74L30.14-14.74L17.93-14.74L17.93-19.09Z" transform="translate(-1.65, 38.06980198019802)"></path></g> <!----> <!----> <!----> <!----> <!----> <!----> <!----></g> <g fill-rule="" hollow-target="t-name" class="tp-slogan iconsvg-slogansvg" fill="#0be8e6" transform="translate(0,45.51035690307617)"><rect x="0" height="1" y="3.7899999618530273" width="4.289999961853027"></rect> <rect height="1" y="3.7899999618530273" width="4.289999961853027" x="28.710000038146973"></rect> <g transform="translate(7.289999961853027,0)"><path d="M3.47-8.44L4.27-8.44L4.27 0L3.19 0L3.19-5.95L1.17-5.95L1.17-6.80Q3.28-6.70 3.47-8.44L3.47-8.44ZM8.25-5.39L8.25-5.39L7.17-5.39Q7.22-8.34 10.08-8.44L10.08-8.44Q12.61-8.30 12.75-5.91L12.75-5.91Q12.84-4.17 10.45-3.09L10.45-3.09L9.56-2.58Q8.30-1.88 8.16-0.98L8.16-0.98L12.75-0.98L12.75 0L6.98 0Q7.03-2.30 8.95-3.33L8.95-3.33L10.08-3.98Q11.72-4.83 11.63-5.95L11.63-5.95Q11.53-7.41 9.94-7.45L9.94-7.45Q8.30-7.45 8.25-5.39ZM15.98-3.89L15.98-3.89L15.98-4.78Q16.27-4.78 16.55-4.78L16.55-4.78Q18.09-4.83 18.14-6.14L18.14-6.14Q18.05-7.41 16.59-7.45L16.59-7.45Q15-7.45 14.95-5.67L14.95-5.67L13.92-5.67Q13.97-8.39 16.64-8.44L16.64-8.44Q19.08-8.34 19.22-6.23L19.22-6.23Q19.22-4.92 18.19-4.45L18.19-4.45L18.19-4.41Q19.59-3.98 19.59-2.48L19.59-2.48Q19.45 0.05 16.55 0.14L16.55 0.14Q15.56 0.14 15-0.14L15-0.14Q13.78-0.70 13.73-2.58L13.73-2.58L14.81-2.58Q14.86-0.70 16.59-0.70L16.59-0.70Q18.33-0.80 18.42-2.34L18.42-2.34Q18.42-3.89 16.50-3.89L16.50-3.89Q16.22-3.89 15.98-3.89Z" transform="translate(-1.171875, 8.4375)"></path></g></g></g></g><mask id="58106769-bb8e-4558-9e11-60893b243027"><g fill-rule="" class="tp-name iconsvg-namesvg" transform="translate(0,0)" fill="white"><g><path d="M17.93-19.09L26.40-19.14Q29.26-19.20 34.65-19.20L34.65-19.20L34.65-14.79Q34.65-11.22 32.59-7.67Q30.52-4.13 26.89-1.84Q23.27 0.44 18.70 0.44L18.70 0.44Q13.26 0.44 9.40-2.37Q5.55-5.17 3.60-9.71Q1.65-14.24 1.65-19.36L1.65-19.36Q1.65-24.31 3.55-28.66Q5.45-33 9.19-35.61Q12.93-38.23 18.15-38.06L18.15-38.06Q29.86-38.06 34.21-26.95L34.21-26.95L29.92-25.85Q28.49-28.11 26.84-29.86Q25.19-31.63 23.24-32.48Q21.29-33.33 18.15-33.33L18.15-33.33Q14.63-33.33 12.04-31.24Q9.46-29.15 8.39-25.77Q7.32-22.39 7.32-18.59L7.32-18.59Q7.32-14.85 8.39-11.55Q9.46-8.25 12.24-6.24Q15.02-4.24 19.03-4.24L19.03-4.24Q23.48-4.24 26.37-7.12Q29.26-10.01 30.14-14.74L30.14-14.74L17.93-14.74L17.93-19.09Z" transform="translate(-1.65, 38.06980198019802)"></path></g>       </g> <rect fill="#000" x="0" y="0" width="37" height="12.579999923706055" transform="translate(-2, 43.51035690307617)"></rect><g fill-rule="" hollow-target="t-name" class="tp-slogan iconsvg-slogansvg" transform="translate(0,45.51035690307617)" fill="#fff"><rect x="0" height="1" y="3.7899999618530273" width="4.289999961853027"></rect> <rect height="1" y="3.7899999618530273" width="4.289999961853027" x="28.710000038146973"></rect> <g transform="translate(7.289999961853027,0)"><path d="M3.47-8.44L4.27-8.44L4.27 0L3.19 0L3.19-5.95L1.17-5.95L1.17-6.80Q3.28-6.70 3.47-8.44L3.47-8.44ZM8.25-5.39L8.25-5.39L7.17-5.39Q7.22-8.34 10.08-8.44L10.08-8.44Q12.61-8.30 12.75-5.91L12.75-5.91Q12.84-4.17 10.45-3.09L10.45-3.09L9.56-2.58Q8.30-1.88 8.16-0.98L8.16-0.98L12.75-0.98L12.75 0L6.98 0Q7.03-2.30 8.95-3.33L8.95-3.33L10.08-3.98Q11.72-4.83 11.63-5.95L11.63-5.95Q11.53-7.41 9.94-7.45L9.94-7.45Q8.30-7.45 8.25-5.39ZM15.98-3.89L15.98-3.89L15.98-4.78Q16.27-4.78 16.55-4.78L16.55-4.78Q18.09-4.83 18.14-6.14L18.14-6.14Q18.05-7.41 16.59-7.45L16.59-7.45Q15-7.45 14.95-5.67L14.95-5.67L13.92-5.67Q13.97-8.39 16.64-8.44L16.64-8.44Q19.08-8.34 19.22-6.23L19.22-6.23Q19.22-4.92 18.19-4.45L18.19-4.45L18.19-4.41Q19.59-3.98 19.59-2.48L19.59-2.48Q19.45 0.05 16.55 0.14L16.55 0.14Q15.56 0.14 15-0.14L15-0.14Q13.78-0.70 13.73-2.58L13.73-2.58L14.81-2.58Q14.86-0.70 16.59-0.70L16.59-0.70Q18.33-0.80 18.42-2.34L18.42-2.34Q18.42-3.89 16.50-3.89L16.50-3.89Q16.22-3.89 15.98-3.89Z" transform="translate(-1.171875, 8.4375)"></path></g></g></mask></svg>