<svg data-v-1e121de1="" version="1.0" xmlns="http://www.w3.org/2000/svg" xmlns:xlink="http://www.w3.org/1999/xlink" width="100%" height="100%" viewBox="0 0 340.000000 250.000000" preserveAspectRatio="xMidYMid meet" color-interpolation-filters="sRGB" class="el-tooltip" style="margin: auto;"><rect data-v-1e121de1="" x="0" y="0" width="100%" height="100%" fill="#0077c0" fill-opacity="1" class="background"></rect> <rect data-v-1e121de1="" x="0" y="0" width="100%" height="100%" fill="url(#watermark)" fill-opacity="1" class="watermarklayer"></rect> <g data-v-1e121de1="" fill="#fff" class="iconbordersvg" transform="translate(115,36.70124816894531)"><g><g><rect stroke-width="2" class="i-icon-bg" x="0" y="0" width="110" height="176.59750366210938" fill-opacity="0" stroke="rgb(255, 255, 255)"></rect> <!----> <!----> </g> <g transform="translate(0,0)"><g transform="translate(0,0)"><g><rect stroke-width="2" class="i-icon-bg" x="0" y="0" width="110" height="110" fill-opacity="0"></rect> <!----> <!----> </g> <g transform="translate(5,5)"><g class="iconsvg-imagesvg"><!----> <svg filter="url(#colors1762611474)" x="0" y="0" width="100" height="100" filtersec="colorsf8554382893" class="image-svg-svg primary"><svg xmlns="http://www.w3.org/2000/svg" viewBox="0 0 96.6 96.6"><path d="M48.3 48.3c-12.8 0-23.1-10.4-23.1-23.1S35.5 2 48.3 2c6.4 0 12.2 2.6 16.4 6.8m-32.8 0c-5.9 0-11.8 2.3-16.4 6.8-9 9-9 23.7 0 32.7 9 9 23.7 9 32.7 0M8.8 31.9C4.6 36.1 2 41.9 2 48.3c0 12.8 10.4 23.1 23.1 23.1S48.2 61 48.2 48.3M8.8 64.7c0 5.9 2.3 11.8 6.8 16.4 9 9 23.7 9 32.7 0s9-23.7 0-32.7M31.9 87.8c4.2 4.2 10 6.8 16.4 6.8 12.8 0 23.1-10.4 23.1-23.1S61.1 48.3 48.3 48.3m16.4 39.5c5.9 0 11.8-2.3 16.4-6.8 9-9 9-23.7 0-32.7s-23.7-9-32.7 0m39.4 16.4c4.2-4.2 6.8-10 6.8-16.4 0-12.8-10.4-23.1-23.1-23.1S48.3 35.5 48.3 48.3m39.5-16.4c0-5.9-2.3-11.8-6.8-16.4-9-9-23.7-9-32.7 0s-9 23.7 0 32.7" fill="none" stroke="#333" stroke-width="4" stroke-miterlimit="10"></path></svg></svg> <defs><filter id="colors1762611474"><feColorMatrix type="matrix" values="0 0 0 0 0.99609375  0 0 0 0 0.99609375  0 0 0 0 0.99609375  0 0 0 1 0" class="icon-fecolormatrix"></feColorMatrix></filter> <filter id="colorsf8554382893"><feColorMatrix type="matrix" values="0 0 0 0 0.99609375  0 0 0 0 0.99609375  0 0 0 0 0.99609375  0 0 0 1 0" class="icon-fecolormatrix"></feColorMatrix></filter> <filter id="colorsb6391076242"><feColorMatrix type="matrix" values="0 0 0 0 0  0 0 0 0 0  0 0 0 0 0  0 0 0 1 0" class="icon-fecolormatrix"></feColorMatrix></filter></defs></g></g></g> <g transform="translate(36.56319999694824,110)" mask="url(#05c5af48-660f-437c-8b9f-f3b0d179c8bc)"><g><rect stroke-width="2" class="i-icon-bg" x="-36.56319999694824" y="0" width="110" height="66.59750366210938" fill-opacity="1"></rect> <!----> <!----> </g> <g transform="translate(5,5)"><g fill-rule="" class="tp-name" transform="translate(0,0)"><g><path d="M29.86-11.38L29.86-11Q29.86-10.45 29.81-10.18L29.81-10.18L29.81-10.06Q29.64-9.85 29.67-9.52Q29.70-9.19 29.70-9.07L29.70-9.07Q29.70-8.86 29.64-8.44Q29.59-8.03 29.64-7.70L29.64-7.70L29.64-7.37Q29.64-6.93 29.48-6.66L29.48-6.66Q29.32-5.67 29.32-5.39L29.32-5.39Q29.32-4.07 29.09-3.41L29.09-3.41Q28.98-2.81 28.49-2.64L28.49-2.64L27.77-1.98Q27.50-1.87 27.45-2.09L27.45-2.09Q27.11-2.37 26.95-2.09L26.95-2.09Q26.89-1.81 26.73-1.73Q26.57-1.65 26.18-1.59L26.18-1.59Q25.36-1.59 24.97-1.32L24.97-1.32Q24.86-1.10 24.70-1.04L24.70-1.04Q24.31-0.66 24.04-0.55L24.04-0.55Q24.04-0.88 23.65-0.66L23.65-0.66L23.27-0.66Q22.88-0.66 22.71-0.60L22.71-0.60Q22.27-0.55 21.39-0.17L21.39-0.17L19.96 0.22L19.75 0.22Q19.47 0.44 19.06 0.52Q18.64 0.60 18.48 0.66L18.48 0.66Q17.93 0.77 17.16 0.66L17.16 0.66Q15.56 0.39 14.96 0.22L14.96 0.22Q14.69 0.17 14.33 0Q13.97-0.17 13.75-0.28L13.75-0.28Q13.09-0.33 12.43-0.82L12.43-0.82Q12.32-0.88 12.18-0.96Q12.04-1.04 11.94-1.10L11.94-1.10Q11.82-1.16 11.74-1.24Q11.66-1.32 11.55-1.38L11.55-1.38Q11.38-1.43 11.03-1.54Q10.67-1.65 10.34-1.71L10.34-1.71L10.18-1.76L8.47-2.81Q8.47-2.81 8.20-3.08L8.20-3.08Q7.59-3.63 7.21-4.07L7.21-4.07L7.09-4.13Q6.66-4.57 6.60-4.79L6.60-4.79Q6.49-5.00 6.38-5.06L6.38-5.06Q6.16-5.55 6.05-5.67L6.05-5.67L5.67-6.16Q5.22-6.82 5.17-7.15L5.17-7.15Q4.79-7.97 4.51-8.80L4.51-8.80Q4.07-9.79 4.07-10.34L4.07-10.34Q4.07-10.56 3.74-11.44L3.74-11.44L3.69-11.66Q3.69-12.43 3.63-12.81L3.63-12.81L3.58-13.20Q3.46-13.37 3.46-13.75L3.46-13.75Q3.52-13.86 3.52-14.08L3.52-14.08Q3.52-14.36 3.35-14.57L3.35-14.57L3.35-14.79Q3.30-15.13 3.30-15.73L3.30-15.73Q3.25-15.95 3.25-16.34L3.25-16.34Q3.25-16.45 3.30-16.61Q3.35-16.77 3.30-16.89L3.30-16.89Q3.25-17.11 3.22-17.46Q3.19-17.82 3.02-18.04L3.02-18.04Q3.02-18.09 3.08-18.18Q3.14-18.26 3.14-18.37L3.14-18.37Q3.14-18.86 3.08-19.14L3.08-19.14L3.14-19.36L3.19-19.52Q3.08-19.64 3.08-19.91L3.08-19.91Q3.08-20.07 3.14-20.27Q3.19-20.46 3.19-20.68L3.19-20.68Q3.19-21.01 3.25-21.39Q3.30-21.78 3.30-22.22L3.30-22.22Q3.30-22.50 3.41-22.93L3.41-22.93Q3.69-23.32 3.58-23.98L3.58-23.98Q3.58-24.31 4.01-25.08L4.01-25.08Q4.07-25.14 4.10-25.27Q4.13-25.41 4.18-25.46L4.18-25.46L4.57-26.62L4.73-27.17L4.73-27.28Q4.84-27.50 4.98-27.77Q5.12-28.05 5.28-28.32L5.28-28.32Q5.28-28.60 5.50-29.15L5.50-29.15Q5.67-29.54 5.88-30.30L5.88-30.30Q5.88-30.36 5.97-30.36Q6.05-30.36 6.11-30.41L6.11-30.41Q6.27-30.41 6.27-30.75L6.27-30.75Q6.27-30.86 6.33-30.94Q6.38-31.02 6.38-31.13L6.38-31.13Q6.49-31.24 6.49-31.41L6.49-31.41Q6.76-32.29 7.92-33.55L7.92-33.55Q8.14-33.77 8.36-34.05Q8.58-34.32 8.91-34.59L8.91-34.59Q9.90-35.59 10.45-36.02L10.45-36.02Q10.78-36.30 11.05-36.47Q11.33-36.63 11.55-36.80L11.55-36.80Q11.61-36.80 11.77-36.96L11.77-36.96Q12.98-37.95 13.75-38.23L13.75-38.23Q13.97-38.34 14.13-38.45Q14.30-38.55 14.46-38.66L14.46-38.66Q15.23-39.16 16.61-39.60L16.61-39.60Q17.98-40.09 18.81-40.20L18.81-40.20Q19.36-40.31 19.64-40.31L19.64-40.31Q20.13-40.31 20.52-40.26Q20.90-40.20 21.18-40.15L21.18-40.15Q22-40.09 23.54-39.33L23.54-39.33L23.93-38.88L24.75-38.28Q25.14-37.95 25.30-37.79L25.30-37.79Q25.41-37.62 25.52-37.62Q25.63-37.62 25.68-37.79L25.68-37.79Q25.74-37.90 25.82-37.90Q25.91-37.90 26.02-37.79L26.02-37.79L26.57-37.34Q26.57-37.34 26.59-37.32Q26.62-37.29 26.62-37.29L26.62-37.29Q27.06-37.29 27.31-36.91Q27.55-36.52 27.66-36.41L27.66-36.41L29.32-34.54Q29.64-34.10 29.59-33.83L29.59-33.83Q29.59-33.66 29.64-33.60L29.64-33.60Q29.92-33.44 29.64-33.11L29.64-33.11Q29.64-33.11 29.54-32.78L29.54-32.78L29.54-32.56Q29.54-32.17 29.32-32.06L29.32-32.06Q29.21-31.96 28.93-31.96L28.93-31.96L27.83-31.73Q27.72-31.73 27.58-31.71Q27.45-31.68 27.28-31.73L27.28-31.73Q27.23-31.73 27.14-31.82Q27.06-31.90 27.06-31.96L27.06-31.96Q27.06-32.34 26.79-32.70Q26.51-33.05 26.40-33.22L26.40-33.22Q26.23-33.44 26.13-33.66Q26.02-33.88 25.85-34.10L25.85-34.10Q24.97-35.20 24.31-35.64L24.31-35.64Q23.98-35.86 23.48-36.19Q22.99-36.52 22.66-36.69L22.66-36.69Q22.05-36.91 21.89-36.96L21.89-36.96L21.45-37.23Q21.07-37.40 20.68-37.40L20.68-37.40Q20.35-37.40 19.69-37.29L19.69-37.29Q19.36-37.23 19.03-37.15Q18.70-37.07 18.37-37.02L18.37-37.02Q18.09-36.96 17.88-36.80L17.88-36.80Q17.38-36.58 16.80-36.22Q16.23-35.86 15.79-35.70L15.79-35.70Q15.73-35.64 15.65-35.61Q15.56-35.59 15.51-35.48L15.51-35.48Q15.13-35.26 14.69-34.81L14.69-34.81Q14.03-34.38 13.80-34.05L13.80-34.05Q13.47-33.94 13.20-33.55Q12.93-33.16 12.76-33.05L12.76-33.05Q12.60-33 12.48-32.73Q12.38-32.45 12.27-32.34L12.27-32.34Q12.15-32.23 11.99-32.01Q11.82-31.79 11.71-31.63L11.71-31.63Q10.89-30.69 10.01-29.09L10.01-29.09Q9.85-28.77 9.73-28.41Q9.63-28.05 9.46-27.66L9.46-27.66Q9.29-27.28 9.19-26.62Q9.07-25.96 8.96-25.46L8.96-25.46Q8.91-25.02 8.77-24.45Q8.63-23.87 8.58-23.54L8.58-23.54Q8.25-22.55 8.30-22L8.30-22L8.30-21.89Q8.30-21.61 8.25-21.39Q8.20-21.18 8.14-21.01L8.14-21.01Q8.20-20.41 8.20-19.09L8.20-19.09Q8.25-18.64 8.25-17.98Q8.25-17.32 8.30-16.89L8.30-16.89Q8.30-16.45 8.42-15.68L8.42-15.68Q8.53-15.07 8.63-14.08L8.63-14.08Q8.63-14.19 8.53-14.30L8.53-14.30L8.42-14.30Q8.42-14.19 8.47-14.00Q8.53-13.80 8.58-13.75L8.58-13.75L8.58-13.53L8.58-12.93Q8.69-12.38 8.80-11.17L8.80-11.17Q8.91-10.89 9.05-10.26Q9.19-9.63 9.52-9.13L9.52-9.13L9.79-8.47Q9.90-7.65 10.51-6.66L10.51-6.66L11.33-5.55Q11.71-5.06 12.15-4.79L12.15-4.79Q13.04-4.24 13.37-4.07L13.37-4.07Q13.59-3.90 13.94-3.77Q14.30-3.63 14.46-3.58L14.46-3.58L15.73-3.19Q16.50-3.02 17.16-3.02L17.16-3.02Q18.48-3.02 19.69-3.19L19.69-3.19Q20.52-3.30 20.96-3.41L20.96-3.41Q21.07-3.41 21.15-3.46Q21.23-3.52 21.29-3.58L21.29-3.58Q21.84-4.13 22.11-4.51L22.11-4.51Q22.16-4.57 22.27-4.73Q22.39-4.90 22.55-5.06L22.55-5.06Q22.61-5.12 22.63-5.20Q22.66-5.28 22.71-5.33L22.71-5.33Q22.82-5.45 22.88-5.64Q22.93-5.83 22.93-5.88L22.93-5.88Q22.93-6.00 22.93-6.24Q22.93-6.49 23.16-6.66L23.16-6.66L23.16-6.76L23.16-7.54L23.16-7.97Q23.05-8.30 23.05-8.53L23.05-8.53L23.10-9.02L23.10-9.07Q22.93-9.40 22.96-9.79Q22.99-10.18 22.99-10.34L22.99-10.34Q22.99-10.51 23.02-10.84Q23.05-11.17 22.99-11.38L22.99-11.38Q22.99-11.94 23.05-12.15L23.05-12.15Q23.21-12.48 23.16-12.76L23.16-12.76Q23.21-12.93 23.18-13.06Q23.16-13.20 23.16-13.31L23.16-13.31L23.16-14.08L23.16-14.19Q23.16-14.36 23.21-14.55Q23.27-14.74 23.27-14.90L23.27-14.90L23.27-16.17Q23.27-17.43 23.21-18.09L23.21-18.09L23.21-18.15Q23.21-18.81 22.44-18.81L22.44-18.81Q22.22-18.81 21.75-18.70Q21.29-18.59 20.90-18.54L20.90-18.54Q20.52-18.48 20.24-18.40Q19.96-18.32 19.80-18.26L19.80-18.26L18.86-18.54Q18.59-18.59 18.04-18.81L18.04-18.81Q17.38-19.14 16.94-19.09L16.94-19.09L16.77-19.09Q16.28-19.14 16.00-19.36L16.00-19.36Q15.89-19.36 15.81-19.47Q15.73-19.58 15.73-19.58L15.73-19.58Q15.73-19.86 16.00-19.80L16.00-19.80Q16.17-20.02 16.42-20.05Q16.66-20.07 16.89-20.02L16.89-20.02L17.32-20.07Q17.60-20.13 18.15-20.13L18.15-20.13Q18.26-20.24 18.26-20.30L18.26-20.30Q18.15-20.63 18.15-20.90L18.15-20.90Q18.15-20.96 18.23-20.98Q18.32-21.01 18.37-21.01L18.37-21.01Q18.92-20.96 19.66-21.07Q20.41-21.18 20.96-21.23L20.96-21.23Q21.29-21.23 21.64-21.31Q22-21.39 22.39-21.39L22.39-21.39Q23.16-21.39 23.93-21.23L23.93-21.23L25.30-21.23Q26.07-21.23 26.51-21.34L26.51-21.34L26.62-21.34Q26.84-21.34 27.14-21.26Q27.45-21.18 27.61-21.12L27.61-21.12Q27.72-21.07 27.91-20.93Q28.11-20.79 28.32-20.73L28.32-20.73Q28.98-20.57 29.26-19.69L29.26-19.69Q29.59-18.81 29.70-17.27L29.70-17.27L29.70-15.18Q29.70-13.97 29.59-13.37L29.59-13.37Q29.59-13.04 29.70-12.93L29.70-12.93Q29.92-12.54 29.89-12.04Q29.86-11.55 29.86-11.38L29.86-11.38ZM8.63-14.08L8.63-14.03L8.63-14.08Z" transform="translate(-3.025, 40.315)"></path></g> <!----> <!----> <!----> <!----> <!----> <!----> <!----></g> <g fill-rule="" hollow-target="custom" class="tp-slogan" fill="" transform="translate(4.226799964904785,48.025001525878906)"><!----> <!----> <g><path d="M3.47-8.44L4.27-8.44L4.27 0L3.19 0L3.19-5.95L1.17-5.95L1.17-6.80Q3.28-6.70 3.47-8.44L3.47-8.44ZM8.25-5.39L8.25-5.39L7.17-5.39Q7.22-8.34 10.08-8.44L10.08-8.44Q12.61-8.30 12.75-5.91L12.75-5.91Q12.84-4.17 10.45-3.09L10.45-3.09L9.56-2.58Q8.30-1.88 8.16-0.98L8.16-0.98L12.75-0.98L12.75 0L6.98 0Q7.03-2.30 8.95-3.33L8.95-3.33L10.08-3.98Q11.72-4.83 11.63-5.95L11.63-5.95Q11.53-7.41 9.94-7.45L9.94-7.45Q8.30-7.45 8.25-5.39ZM15.98-3.89L15.98-3.89L15.98-4.78Q16.27-4.78 16.55-4.78L16.55-4.78Q18.09-4.83 18.14-6.14L18.14-6.14Q18.05-7.41 16.59-7.45L16.59-7.45Q15-7.45 14.95-5.67L14.95-5.67L13.92-5.67Q13.97-8.39 16.64-8.44L16.64-8.44Q19.08-8.34 19.22-6.23L19.22-6.23Q19.22-4.92 18.19-4.45L18.19-4.45L18.19-4.41Q19.59-3.98 19.59-2.48L19.59-2.48Q19.45 0.05 16.55 0.14L16.55 0.14Q15.56 0.14 15-0.14L15-0.14Q13.78-0.70 13.73-2.58L13.73-2.58L14.81-2.58Q14.86-0.70 16.59-0.70L16.59-0.70Q18.33-0.80 18.42-2.34L18.42-2.34Q18.42-3.89 16.50-3.89L16.50-3.89Q16.22-3.89 15.98-3.89Z" transform="translate(-1.171875, 8.4375)"></path></g></g></g></g></g></g></g><mask id="05c5af48-660f-437c-8b9f-f3b0d179c8bc"><g fill="white"><rect stroke-width="2" class="i-icon-bg" x="-36.56319999694824" y="0" width="110" height="66.59750366210938" fill-opacity="1"></rect>   </g> <g transform="translate(5,5)" fill="black"><g fill-rule="" class="tp-name" transform="translate(0,0)"><g><path d="M29.86-11.38L29.86-11Q29.86-10.45 29.81-10.18L29.81-10.18L29.81-10.06Q29.64-9.85 29.67-9.52Q29.70-9.19 29.70-9.07L29.70-9.07Q29.70-8.86 29.64-8.44Q29.59-8.03 29.64-7.70L29.64-7.70L29.64-7.37Q29.64-6.93 29.48-6.66L29.48-6.66Q29.32-5.67 29.32-5.39L29.32-5.39Q29.32-4.07 29.09-3.41L29.09-3.41Q28.98-2.81 28.49-2.64L28.49-2.64L27.77-1.98Q27.50-1.87 27.45-2.09L27.45-2.09Q27.11-2.37 26.95-2.09L26.95-2.09Q26.89-1.81 26.73-1.73Q26.57-1.65 26.18-1.59L26.18-1.59Q25.36-1.59 24.97-1.32L24.97-1.32Q24.86-1.10 24.70-1.04L24.70-1.04Q24.31-0.66 24.04-0.55L24.04-0.55Q24.04-0.88 23.65-0.66L23.65-0.66L23.27-0.66Q22.88-0.66 22.71-0.60L22.71-0.60Q22.27-0.55 21.39-0.17L21.39-0.17L19.96 0.22L19.75 0.22Q19.47 0.44 19.06 0.52Q18.64 0.60 18.48 0.66L18.48 0.66Q17.93 0.77 17.16 0.66L17.16 0.66Q15.56 0.39 14.96 0.22L14.96 0.22Q14.69 0.17 14.33 0Q13.97-0.17 13.75-0.28L13.75-0.28Q13.09-0.33 12.43-0.82L12.43-0.82Q12.32-0.88 12.18-0.96Q12.04-1.04 11.94-1.10L11.94-1.10Q11.82-1.16 11.74-1.24Q11.66-1.32 11.55-1.38L11.55-1.38Q11.38-1.43 11.03-1.54Q10.67-1.65 10.34-1.71L10.34-1.71L10.18-1.76L8.47-2.81Q8.47-2.81 8.20-3.08L8.20-3.08Q7.59-3.63 7.21-4.07L7.21-4.07L7.09-4.13Q6.66-4.57 6.60-4.79L6.60-4.79Q6.49-5.00 6.38-5.06L6.38-5.06Q6.16-5.55 6.05-5.67L6.05-5.67L5.67-6.16Q5.22-6.82 5.17-7.15L5.17-7.15Q4.79-7.97 4.51-8.80L4.51-8.80Q4.07-9.79 4.07-10.34L4.07-10.34Q4.07-10.56 3.74-11.44L3.74-11.44L3.69-11.66Q3.69-12.43 3.63-12.81L3.63-12.81L3.58-13.20Q3.46-13.37 3.46-13.75L3.46-13.75Q3.52-13.86 3.52-14.08L3.52-14.08Q3.52-14.36 3.35-14.57L3.35-14.57L3.35-14.79Q3.30-15.13 3.30-15.73L3.30-15.73Q3.25-15.95 3.25-16.34L3.25-16.34Q3.25-16.45 3.30-16.61Q3.35-16.77 3.30-16.89L3.30-16.89Q3.25-17.11 3.22-17.46Q3.19-17.82 3.02-18.04L3.02-18.04Q3.02-18.09 3.08-18.18Q3.14-18.26 3.14-18.37L3.14-18.37Q3.14-18.86 3.08-19.14L3.08-19.14L3.14-19.36L3.19-19.52Q3.08-19.64 3.08-19.91L3.08-19.91Q3.08-20.07 3.14-20.27Q3.19-20.46 3.19-20.68L3.19-20.68Q3.19-21.01 3.25-21.39Q3.30-21.78 3.30-22.22L3.30-22.22Q3.30-22.50 3.41-22.93L3.41-22.93Q3.69-23.32 3.58-23.98L3.58-23.98Q3.58-24.31 4.01-25.08L4.01-25.08Q4.07-25.14 4.10-25.27Q4.13-25.41 4.18-25.46L4.18-25.46L4.57-26.62L4.73-27.17L4.73-27.28Q4.84-27.50 4.98-27.77Q5.12-28.05 5.28-28.32L5.28-28.32Q5.28-28.60 5.50-29.15L5.50-29.15Q5.67-29.54 5.88-30.30L5.88-30.30Q5.88-30.36 5.97-30.36Q6.05-30.36 6.11-30.41L6.11-30.41Q6.27-30.41 6.27-30.75L6.27-30.75Q6.27-30.86 6.33-30.94Q6.38-31.02 6.38-31.13L6.38-31.13Q6.49-31.24 6.49-31.41L6.49-31.41Q6.76-32.29 7.92-33.55L7.92-33.55Q8.14-33.77 8.36-34.05Q8.58-34.32 8.91-34.59L8.91-34.59Q9.90-35.59 10.45-36.02L10.45-36.02Q10.78-36.30 11.05-36.47Q11.33-36.63 11.55-36.80L11.55-36.80Q11.61-36.80 11.77-36.96L11.77-36.96Q12.98-37.95 13.75-38.23L13.75-38.23Q13.97-38.34 14.13-38.45Q14.30-38.55 14.46-38.66L14.46-38.66Q15.23-39.16 16.61-39.60L16.61-39.60Q17.98-40.09 18.81-40.20L18.81-40.20Q19.36-40.31 19.64-40.31L19.64-40.31Q20.13-40.31 20.52-40.26Q20.90-40.20 21.18-40.15L21.18-40.15Q22-40.09 23.54-39.33L23.54-39.33L23.93-38.88L24.75-38.28Q25.14-37.95 25.30-37.79L25.30-37.79Q25.41-37.62 25.52-37.62Q25.63-37.62 25.68-37.79L25.68-37.79Q25.74-37.90 25.82-37.90Q25.91-37.90 26.02-37.79L26.02-37.79L26.57-37.34Q26.57-37.34 26.59-37.32Q26.62-37.29 26.62-37.29L26.62-37.29Q27.06-37.29 27.31-36.91Q27.55-36.52 27.66-36.41L27.66-36.41L29.32-34.54Q29.64-34.10 29.59-33.83L29.59-33.83Q29.59-33.66 29.64-33.60L29.64-33.60Q29.92-33.44 29.64-33.11L29.64-33.11Q29.64-33.11 29.54-32.78L29.54-32.78L29.54-32.56Q29.54-32.17 29.32-32.06L29.32-32.06Q29.21-31.96 28.93-31.96L28.93-31.96L27.83-31.73Q27.72-31.73 27.58-31.71Q27.45-31.68 27.28-31.73L27.28-31.73Q27.23-31.73 27.14-31.82Q27.06-31.90 27.06-31.96L27.06-31.96Q27.06-32.34 26.79-32.70Q26.51-33.05 26.40-33.22L26.40-33.22Q26.23-33.44 26.13-33.66Q26.02-33.88 25.85-34.10L25.85-34.10Q24.97-35.20 24.31-35.64L24.31-35.64Q23.98-35.86 23.48-36.19Q22.99-36.52 22.66-36.69L22.66-36.69Q22.05-36.91 21.89-36.96L21.89-36.96L21.45-37.23Q21.07-37.40 20.68-37.40L20.68-37.40Q20.35-37.40 19.69-37.29L19.69-37.29Q19.36-37.23 19.03-37.15Q18.70-37.07 18.37-37.02L18.37-37.02Q18.09-36.96 17.88-36.80L17.88-36.80Q17.38-36.58 16.80-36.22Q16.23-35.86 15.79-35.70L15.79-35.70Q15.73-35.64 15.65-35.61Q15.56-35.59 15.51-35.48L15.51-35.48Q15.13-35.26 14.69-34.81L14.69-34.81Q14.03-34.38 13.80-34.05L13.80-34.05Q13.47-33.94 13.20-33.55Q12.93-33.16 12.76-33.05L12.76-33.05Q12.60-33 12.48-32.73Q12.38-32.45 12.27-32.34L12.27-32.34Q12.15-32.23 11.99-32.01Q11.82-31.79 11.71-31.63L11.71-31.63Q10.89-30.69 10.01-29.09L10.01-29.09Q9.85-28.77 9.73-28.41Q9.63-28.05 9.46-27.66L9.46-27.66Q9.29-27.28 9.19-26.62Q9.07-25.96 8.96-25.46L8.96-25.46Q8.91-25.02 8.77-24.45Q8.63-23.87 8.58-23.54L8.58-23.54Q8.25-22.55 8.30-22L8.30-22L8.30-21.89Q8.30-21.61 8.25-21.39Q8.20-21.18 8.14-21.01L8.14-21.01Q8.20-20.41 8.20-19.09L8.20-19.09Q8.25-18.64 8.25-17.98Q8.25-17.32 8.30-16.89L8.30-16.89Q8.30-16.45 8.42-15.68L8.42-15.68Q8.53-15.07 8.63-14.08L8.63-14.08Q8.63-14.19 8.53-14.30L8.53-14.30L8.42-14.30Q8.42-14.19 8.47-14.00Q8.53-13.80 8.58-13.75L8.58-13.75L8.58-13.53L8.58-12.93Q8.69-12.38 8.80-11.17L8.80-11.17Q8.91-10.89 9.05-10.26Q9.19-9.63 9.52-9.13L9.52-9.13L9.79-8.47Q9.90-7.65 10.51-6.66L10.51-6.66L11.33-5.55Q11.71-5.06 12.15-4.79L12.15-4.79Q13.04-4.24 13.37-4.07L13.37-4.07Q13.59-3.90 13.94-3.77Q14.30-3.63 14.46-3.58L14.46-3.58L15.73-3.19Q16.50-3.02 17.16-3.02L17.16-3.02Q18.48-3.02 19.69-3.19L19.69-3.19Q20.52-3.30 20.96-3.41L20.96-3.41Q21.07-3.41 21.15-3.46Q21.23-3.52 21.29-3.58L21.29-3.58Q21.84-4.13 22.11-4.51L22.11-4.51Q22.16-4.57 22.27-4.73Q22.39-4.90 22.55-5.06L22.55-5.06Q22.61-5.12 22.63-5.20Q22.66-5.28 22.71-5.33L22.71-5.33Q22.82-5.45 22.88-5.64Q22.93-5.83 22.93-5.88L22.93-5.88Q22.93-6.00 22.93-6.24Q22.93-6.49 23.16-6.66L23.16-6.66L23.16-6.76L23.16-7.54L23.16-7.97Q23.05-8.30 23.05-8.53L23.05-8.53L23.10-9.02L23.10-9.07Q22.93-9.40 22.96-9.79Q22.99-10.18 22.99-10.34L22.99-10.34Q22.99-10.51 23.02-10.84Q23.05-11.17 22.99-11.38L22.99-11.38Q22.99-11.94 23.05-12.15L23.05-12.15Q23.21-12.48 23.16-12.76L23.16-12.76Q23.21-12.93 23.18-13.06Q23.16-13.20 23.16-13.31L23.16-13.31L23.16-14.08L23.16-14.19Q23.16-14.36 23.21-14.55Q23.27-14.74 23.27-14.90L23.27-14.90L23.27-16.17Q23.27-17.43 23.21-18.09L23.21-18.09L23.21-18.15Q23.21-18.81 22.44-18.81L22.44-18.81Q22.22-18.81 21.75-18.70Q21.29-18.59 20.90-18.54L20.90-18.54Q20.52-18.48 20.24-18.40Q19.96-18.32 19.80-18.26L19.80-18.26L18.86-18.54Q18.59-18.59 18.04-18.81L18.04-18.81Q17.38-19.14 16.94-19.09L16.94-19.09L16.77-19.09Q16.28-19.14 16.00-19.36L16.00-19.36Q15.89-19.36 15.81-19.47Q15.73-19.58 15.73-19.58L15.73-19.58Q15.73-19.86 16.00-19.80L16.00-19.80Q16.17-20.02 16.42-20.05Q16.66-20.07 16.89-20.02L16.89-20.02L17.32-20.07Q17.60-20.13 18.15-20.13L18.15-20.13Q18.26-20.24 18.26-20.30L18.26-20.30Q18.15-20.63 18.15-20.90L18.15-20.90Q18.15-20.96 18.23-20.98Q18.32-21.01 18.37-21.01L18.37-21.01Q18.92-20.96 19.66-21.07Q20.41-21.18 20.96-21.23L20.96-21.23Q21.29-21.23 21.64-21.31Q22-21.39 22.39-21.39L22.39-21.39Q23.16-21.39 23.93-21.23L23.93-21.23L25.30-21.23Q26.07-21.23 26.51-21.34L26.51-21.34L26.62-21.34Q26.84-21.34 27.14-21.26Q27.45-21.18 27.61-21.12L27.61-21.12Q27.72-21.07 27.91-20.93Q28.11-20.79 28.32-20.73L28.32-20.73Q28.98-20.57 29.26-19.69L29.26-19.69Q29.59-18.81 29.70-17.27L29.70-17.27L29.70-15.18Q29.70-13.97 29.59-13.37L29.59-13.37Q29.59-13.04 29.70-12.93L29.70-12.93Q29.92-12.54 29.89-12.04Q29.86-11.55 29.86-11.38L29.86-11.38ZM8.63-14.08L8.63-14.03L8.63-14.08Z" transform="translate(-3.025, 40.315)"></path></g>       </g> <g fill-rule="" hollow-target="custom" class="tp-slogan" transform="translate(4.226799964904785,48.025001525878906)">  <g><path d="M3.47-8.44L4.27-8.44L4.27 0L3.19 0L3.19-5.95L1.17-5.95L1.17-6.80Q3.28-6.70 3.47-8.44L3.47-8.44ZM8.25-5.39L8.25-5.39L7.17-5.39Q7.22-8.34 10.08-8.44L10.08-8.44Q12.61-8.30 12.75-5.91L12.75-5.91Q12.84-4.17 10.45-3.09L10.45-3.09L9.56-2.58Q8.30-1.88 8.16-0.98L8.16-0.98L12.75-0.98L12.75 0L6.98 0Q7.03-2.30 8.95-3.33L8.95-3.33L10.08-3.98Q11.72-4.83 11.63-5.95L11.63-5.95Q11.53-7.41 9.94-7.45L9.94-7.45Q8.30-7.45 8.25-5.39ZM15.98-3.89L15.98-3.89L15.98-4.78Q16.27-4.78 16.55-4.78L16.55-4.78Q18.09-4.83 18.14-6.14L18.14-6.14Q18.05-7.41 16.59-7.45L16.59-7.45Q15-7.45 14.95-5.67L14.95-5.67L13.92-5.67Q13.97-8.39 16.64-8.44L16.64-8.44Q19.08-8.34 19.22-6.23L19.22-6.23Q19.22-4.92 18.19-4.45L18.19-4.45L18.19-4.41Q19.59-3.98 19.59-2.48L19.59-2.48Q19.45 0.05 16.55 0.14L16.55 0.14Q15.56 0.14 15-0.14L15-0.14Q13.78-0.70 13.73-2.58L13.73-2.58L14.81-2.58Q14.86-0.70 16.59-0.70L16.59-0.70Q18.33-0.80 18.42-2.34L18.42-2.34Q18.42-3.89 16.50-3.89L16.50-3.89Q16.22-3.89 15.98-3.89Z" transform="translate(-1.171875, 8.4375)"></path></g></g></g></mask></svg>