<svg data-v-1e121de1="" version="1.0" xmlns="http://www.w3.org/2000/svg" xmlns:xlink="http://www.w3.org/1999/xlink" width="100%" height="100%" viewBox="0 0 340.000000 250.000000" preserveAspectRatio="xMidYMid meet" color-interpolation-filters="sRGB" class="el-tooltip" style="margin: auto;"><rect data-v-1e121de1="" x="0" y="0" width="100%" height="100%" fill="#FFCC00" fill-opacity="1" class="background"></rect> <rect data-v-1e121de1="" x="0" y="0" width="100%" height="100%" fill="url(#watermark)" fill-opacity="1" class="watermarklayer"></rect> <g data-v-1e121de1="" fill="#ffffff" class="icon-text-wrapper icon-svg-group iconsvg" transform="translate(140,62.60625076293945)"><g class="iconsvg-imagesvg" transform="translate(0,0)"><rect fill="#ffffff" fill-opacity="0" stroke-width="2" x="0" y="0" width="60" height="60" class="image-rect"></rect> <svg filter="url(#colors5121620802)" x="0" y="0" width="60" height="60" filtersec="colorsf9802119755" class="image-svg-svg primary"><svg xmlns="http://www.w3.org/2000/svg" viewBox="0 0 190.125 190.125"><path d="M182.625 87.563h-24.537l8.358-14.477a7.5 7.5 0 0 0-12.99-7.5l-8.359 14.477-12.027-20.832h16.72c4.143 0 7.5-3.358 7.5-7.5s-3.357-7.5-7.5-7.5h-16.72l12.269-21.249a7.5 7.5 0 0 0-2.745-10.245 7.498 7.498 0 0 0-10.245 2.745l-12.269 21.25-8.36-14.48a7.5 7.5 0 0 0-12.99 7.5l8.359 14.479H83.034l8.36-14.479a7.5 7.5 0 0 0-12.99-7.5l-8.36 14.478-12.268-21.248a7.5 7.5 0 0 0-12.99 7.5l12.268 21.249H40.336a7.5 7.5 0 0 0 0 15h16.717L45.026 80.063l-8.359-14.477a7.5 7.5 0 0 0-12.99 7.5l8.359 14.477H7.5a7.5 7.5 0 0 0 0 15h24.536l-8.359 14.479a7.5 7.5 0 0 0 12.99 7.5l8.359-14.479 12.027 20.832H40.336a7.5 7.5 0 0 0 0 15h16.718l-12.268 21.249a7.5 7.5 0 0 0 12.99 7.5l12.268-21.25 8.359 14.478a7.497 7.497 0 0 0 10.245 2.745 7.5 7.5 0 0 0 2.745-10.245l-8.359-14.478h24.053l-8.358 14.478a7.5 7.5 0 0 0 12.99 7.5l8.36-14.479 12.269 21.251a7.497 7.497 0 0 0 10.245 2.745 7.5 7.5 0 0 0 2.745-10.245l-12.268-21.249h16.718c4.143 0 7.5-3.358 7.5-7.5s-3.357-7.5-7.5-7.5h-16.72l12.027-20.832 8.359 14.479a7.497 7.497 0 0 0 10.245 2.745 7.5 7.5 0 0 0 2.745-10.245l-8.359-14.479h24.538a7.5 7.5 0 0 0 7.5-7.5 7.497 7.497 0 0 0-7.498-7.5zm-66.876 43.332H74.375L53.687 95.063l20.687-35.832h41.375l20.688 35.832-20.688 35.832z" fill="#000000"></path></svg></svg> <defs><filter id="colors5121620802"><feColorMatrix type="matrix" values="0 0 0 0 0.99609375  0 0 0 0 0.99609375  0 0 0 0 0.99609375  0 0 0 1 0" class="icon-fecolormatrix"></feColorMatrix></filter> <filter id="colorsf9802119755"><feColorMatrix type="matrix" values="0 0 0 0 0.99609375  0 0 0 0 0.99609375  0 0 0 0 0.99609375  0 0 0 1 0" class="icon-fecolormatrix"></feColorMatrix></filter> <filter id="colorsb8822538369"><feColorMatrix type="matrix" values="0 0 0 0 0  0 0 0 0 0  0 0 0 0 0  0 0 0 1 0" class="icon-fecolormatrix"></feColorMatrix></filter></defs></g> <g transform="translate(13.61294937133789,67)" mask="url(#8ee3c9e5-787c-406b-9e16-709d6d15852e)"><g fill-rule="" class="tp-name iconsvg-namesvg" transform="translate(0,0)"><g><path d="M24.55-22.50L24.55-22.50L32.23-22.50Q33.78-22.50 34.75-21.54Q35.72-20.57 35.72-19.01L35.72-19.01L35.72-6.07Q35.72-4.19 34.43-3.01L34.43-3.01Q29.54 0.75 22.50 0.75L22.50 0.75Q13.86 0.75 8.41-4.78Q2.95-10.31 2.95-20.20L2.95-20.20Q2.95-29.97 8.51-35.72Q14.07-41.46 22.50-41.46L22.50-41.46Q28.52-41.46 33.03-38.08L33.03-38.08Q35.07-36.25 33.03-33.84L33.03-33.84Q30.72-31.04 28.09-33.09L28.09-33.09Q25.57-34.48 22.77-34.48L22.77-34.48Q17.62-34.48 14.45-30.72Q11.28-26.96 11.28-20.46L11.28-20.46Q11.28-13.70 14.34-9.99Q17.40-6.28 23.31-6.28L23.31-6.28Q26.59-6.28 28.41-7.79L28.41-7.79L28.41-15.84L24.55-15.84Q21.22-15.84 21.22-19.17Q21.22-22.50 24.55-22.50Z" transform="translate(-2.9541015625, 41.46484375)"></path></g> <!----> <!----> <!----> <!----> <!----> <!----> <!----></g> <g fill-rule="" hollow-target="t-name" class="tp-slogan iconsvg-slogansvg" fill="#ffffff" transform="translate(0,49.209999084472656)"><rect x="0" height="1" y="3.7899999618530273" width="4.175000190734863"></rect> <rect height="1" y="3.7899999618530273" width="4.175000190734863" x="28.59500026702881"></rect> <g transform="translate(7.175000190734863,0)"><path d="M3.47-8.44L4.27-8.44L4.27 0L3.19 0L3.19-5.95L1.17-5.95L1.17-6.80Q3.28-6.70 3.47-8.44L3.47-8.44ZM8.25-5.39L8.25-5.39L7.17-5.39Q7.22-8.34 10.08-8.44L10.08-8.44Q12.61-8.30 12.75-5.91L12.75-5.91Q12.84-4.17 10.45-3.09L10.45-3.09L9.56-2.58Q8.30-1.88 8.16-0.98L8.16-0.98L12.75-0.98L12.75 0L6.98 0Q7.03-2.30 8.95-3.33L8.95-3.33L10.08-3.98Q11.72-4.83 11.63-5.95L11.63-5.95Q11.53-7.41 9.94-7.45L9.94-7.45Q8.30-7.45 8.25-5.39ZM15.98-3.89L15.98-3.89L15.98-4.78Q16.27-4.78 16.55-4.78L16.55-4.78Q18.09-4.83 18.14-6.14L18.14-6.14Q18.05-7.41 16.59-7.45L16.59-7.45Q15-7.45 14.95-5.67L14.95-5.67L13.92-5.67Q13.97-8.39 16.64-8.44L16.64-8.44Q19.08-8.34 19.22-6.23L19.22-6.23Q19.22-4.92 18.19-4.45L18.19-4.45L18.19-4.41Q19.59-3.98 19.59-2.48L19.59-2.48Q19.45 0.05 16.55 0.14L16.55 0.14Q15.56 0.14 15-0.14L15-0.14Q13.78-0.70 13.73-2.58L13.73-2.58L14.81-2.58Q14.86-0.70 16.59-0.70L16.59-0.70Q18.33-0.80 18.42-2.34L18.42-2.34Q18.42-3.89 16.50-3.89L16.50-3.89Q16.22-3.89 15.98-3.89Z" transform="translate(-1.171875, 8.4375)"></path></g></g></g></g><mask id="8ee3c9e5-787c-406b-9e16-709d6d15852e"><g fill-rule="" class="tp-name iconsvg-namesvg" transform="translate(0,0)" fill="white"><g><path d="M24.55-22.50L24.55-22.50L32.23-22.50Q33.78-22.50 34.75-21.54Q35.72-20.57 35.72-19.01L35.72-19.01L35.72-6.07Q35.72-4.19 34.43-3.01L34.43-3.01Q29.54 0.75 22.50 0.75L22.50 0.75Q13.86 0.75 8.41-4.78Q2.95-10.31 2.95-20.20L2.95-20.20Q2.95-29.97 8.51-35.72Q14.07-41.46 22.50-41.46L22.50-41.46Q28.52-41.46 33.03-38.08L33.03-38.08Q35.07-36.25 33.03-33.84L33.03-33.84Q30.72-31.04 28.09-33.09L28.09-33.09Q25.57-34.48 22.77-34.48L22.77-34.48Q17.62-34.48 14.45-30.72Q11.28-26.96 11.28-20.46L11.28-20.46Q11.28-13.70 14.34-9.99Q17.40-6.28 23.31-6.28L23.31-6.28Q26.59-6.28 28.41-7.79L28.41-7.79L28.41-15.84L24.55-15.84Q21.22-15.84 21.22-19.17Q21.22-22.50 24.55-22.50Z" transform="translate(-2.9541015625, 41.46484375)"></path></g>       </g> <rect fill="#000" x="0" y="0" width="36.77000045776367" height="12.579999923706055" transform="translate(-2, 47.209999084472656)"></rect><g fill-rule="" hollow-target="t-name" class="tp-slogan iconsvg-slogansvg" transform="translate(0,49.209999084472656)" fill="#fff"><rect x="0" height="1" y="3.7899999618530273" width="4.175000190734863"></rect> <rect height="1" y="3.7899999618530273" width="4.175000190734863" x="28.59500026702881"></rect> <g transform="translate(7.175000190734863,0)"><path d="M3.47-8.44L4.27-8.44L4.27 0L3.19 0L3.19-5.95L1.17-5.95L1.17-6.80Q3.28-6.70 3.47-8.44L3.47-8.44ZM8.25-5.39L8.25-5.39L7.17-5.39Q7.22-8.34 10.08-8.44L10.08-8.44Q12.61-8.30 12.75-5.91L12.75-5.91Q12.84-4.17 10.45-3.09L10.45-3.09L9.56-2.58Q8.30-1.88 8.16-0.98L8.16-0.98L12.75-0.98L12.75 0L6.98 0Q7.03-2.30 8.95-3.33L8.95-3.33L10.08-3.98Q11.72-4.83 11.63-5.95L11.63-5.95Q11.53-7.41 9.94-7.45L9.94-7.45Q8.30-7.45 8.25-5.39ZM15.98-3.89L15.98-3.89L15.98-4.78Q16.27-4.78 16.55-4.78L16.55-4.78Q18.09-4.83 18.14-6.14L18.14-6.14Q18.05-7.41 16.59-7.45L16.59-7.45Q15-7.45 14.95-5.67L14.95-5.67L13.92-5.67Q13.97-8.39 16.64-8.44L16.64-8.44Q19.08-8.34 19.22-6.23L19.22-6.23Q19.22-4.92 18.19-4.45L18.19-4.45L18.19-4.41Q19.59-3.98 19.59-2.48L19.59-2.48Q19.45 0.05 16.55 0.14L16.55 0.14Q15.56 0.14 15-0.14L15-0.14Q13.78-0.70 13.73-2.58L13.73-2.58L14.81-2.58Q14.86-0.70 16.59-0.70L16.59-0.70Q18.33-0.80 18.42-2.34L18.42-2.34Q18.42-3.89 16.50-3.89L16.50-3.89Q16.22-3.89 15.98-3.89Z" transform="translate(-1.171875, 8.4375)"></path></g></g></mask></svg>